<svg xmlns="http://www.w3.org/2000/svg" width="259.246" height="215.514" viewBox="0 0 259.246 215.514">
  <g id="logo_full" transform="translate(-504 -720.486)">
    <g id="logo_full-2" data-name="logo_full" transform="translate(414.165 581.038)">
      <g id="img_pan" transform="translate(20 11)">
        <g id="Group_10002" data-name="Group 10002" transform="translate(236.563 233.915)">
          <path id="Path_23" data-name="Path 23" d="M289.013,257.525a8.609,8.609,0,0,1,.74,5.817c6.243.219,19.383,3.989,34.012,10.016,19.576,8.064,34.408,17.118,33.132,20.217s-18.18-.927-37.756-8.991c-14.687-6.05-26.711-12.653-31.254-16.892A9.183,9.183,0,0,1,284,270.908c-4.941,2.063-19.548-4.2-19.548-4.2l1.451-3.523a14.063,14.063,0,0,0,3.881,2.324c6.129,2.525,14.395,1.964,15.794-1.432s-4.074-9.616-10.2-12.141a14.054,14.054,0,0,0-4.392-1.084l1.36-3.3S286.443,252.826,289.013,257.525Z" transform="translate(-264.455 -247.552)" fill="#6c6c6c"/>
          <path id="Path_24" data-name="Path 24" d="M355.527,300.332s-8.841-2.671-17.967-6.344a202.284,202.284,0,0,1-20.451-9.442l3.718-9.526s8.98,2.705,18.346,6.514a202.019,202.019,0,0,1,20.048,9.335Z" transform="translate(-281.09 -256.23)" fill="#1e1e1e"/>
        </g>
        <circle id="Ellipse_9" data-name="Ellipse 9" cx="74.332" cy="74.332" r="74.332" transform="translate(105.835 134.962)" fill="#1e1e1e" stroke="#6c6c6c" stroke-miterlimit="10" stroke-width="8"/>
        <path id="Path_25" data-name="Path 25" d="M159.724,161.285a47.79,47.79,0,0,1,16.926-9.443,54.515,54.515,0,0,1,19.652-2.412,59.8,59.8,0,0,1,19.485,4.492c1.525.694,3.074,1.351,4.564,2.124l2.21,1.21c.735.406,1.484.792,2.178,1.266a66.259,66.259,0,0,1,8.119,5.959c1.248,1.126,2.541,2.205,3.675,3.448a48.894,48.894,0,0,1,3.4,3.714l1.6,1.947c.543.641.987,1.358,1.484,2.033l1.45,2.056c.489.681.878,1.429,1.315,2.144a64.428,64.428,0,0,1,7.492,18.471,66.671,66.671,0,0,1,1.656,19.6,77.691,77.691,0,0,1-3.675,18.984,122.726,122.726,0,0,0,.145-18.948,76.956,76.956,0,0,0-3.573-18.122,66.352,66.352,0,0,0-19.667-29.884,61.843,61.843,0,0,0-7.2-5.4,22.353,22.353,0,0,0-1.918-1.183l-1.949-1.137c-1.315-.729-2.692-1.34-4.027-2.041a62.125,62.125,0,0,0-17.317-5.121,59.141,59.141,0,0,0-18.256.214A59.809,59.809,0,0,0,159.724,161.285Z" transform="translate(-10.835 -2.891)" fill="#d3d3d2"/>
        <path id="Path_26" data-name="Path 26" d="M138.068,173.253c-.825,1.583-1.69,3.118-2.522,4.661-.455.747-.775,1.574-1.152,2.362l-1.091,2.378-.543,1.182-.453,1.223-.906,2.432a47.5,47.5,0,0,0-1.554,4.914,66.362,66.362,0,0,0,10.433,57.219A61.209,61.209,0,0,0,171.97,272.4a59.6,59.6,0,0,0,19.966,2.4l2.568-.132.645-.033.637-.089,1.278-.177,2.57-.345c.427-.065.864-.1,1.288-.189l1.272-.272,2.557-.546a23.723,23.723,0,0,0,2.553-.622c1.687-.479,3.372-.991,5.1-1.453-1.532.884-3.1,1.716-4.671,2.584a22.52,22.52,0,0,1-2.434,1.116l-2.481,1.047-1.248.525c-.416.177-.854.278-1.282.421l-2.59.8a41.474,41.474,0,0,1-5.3,1.266,56.11,56.11,0,0,1-21.967-.206,58.75,58.75,0,0,1-20.51-8.673,25.718,25.718,0,0,1-2.283-1.627l-2.237-1.7c-1.445-1.185-2.81-2.466-4.216-3.7q-1.952-2.01-3.853-4.073c-1.166-1.459-2.386-2.879-3.5-4.378a65.873,65.873,0,0,1-12.676-41.931,61.247,61.247,0,0,1,5.009-21.321,45.628,45.628,0,0,1,2.4-4.88l1.348-2.349c.225-.389.443-.782.678-1.165l.783-1.1,1.56-2.195a24.052,24.052,0,0,1,1.608-2.14C135.725,175.912,136.876,174.558,138.068,173.253Z" transform="translate(-3.064 -7.699)" fill="#333"/>
        <path id="Path_27" data-name="Path 27" d="M131.867,190.861c-.049,1.679-.157,3.336-.231,4.99-.149,1.644-.112,3.3-.116,4.949.018,1.647-.07,3.279.075,4.914.109,1.632.121,3.258.276,4.874A79.384,79.384,0,0,0,135.7,229.36a63.441,63.441,0,0,0,8.465,16.662,45.343,45.343,0,0,0,2.847,3.67,43.121,43.121,0,0,0,3.125,3.424l.8.84c.276.27.571.521.856.782l1.718,1.556a19.169,19.169,0,0,0,1.788,1.474l1.834,1.418A63.643,63.643,0,0,0,191.947,271.3a70.39,70.39,0,0,0,37.229-8.808c-1.245,1.1-2.533,2.175-3.826,3.262-1.373.958-2.748,1.943-4.158,2.884-1.455.854-2.918,1.729-4.426,2.519l-2.315,1.086c-.78.345-1.539.76-2.347,1.035a61.066,61.066,0,0,1-20.16,4.3A62.306,62.306,0,0,1,152.4,265.615a63.453,63.453,0,0,1-7.922-7.026,50.7,50.7,0,0,1-3.456-4.012l-1.617-2.1-.4-.525-.357-.557-.713-1.114a61.2,61.2,0,0,1-8.241-19.2,68.768,68.768,0,0,1-1.721-20.461c.109-1.7.34-3.381.522-5.059a46.182,46.182,0,0,1,.842-4.989A81.627,81.627,0,0,1,131.867,190.861Z" transform="translate(-4.419 -11.239)" fill="#0f0f0f"/>
      </g>
      <text id="CE" transform="translate(199.835 247.962)" fill="#719450" font-size="72" font-family="OpenSans-ExtraBold, Open Sans" font-weight="800"><tspan x="-43.119" y="0">C</tspan><tspan y="0" fill="#f27c31">E</tspan></text>
    </g>
    <g id="logo" transform="translate(505 881)">
      <text id="Campus" transform="translate(80 43)" fill="#719450" font-size="40" font-family="OpenSans-Bold, Open Sans" font-weight="700"><tspan x="-80.205" y="0">Campus</tspan></text>
      <text id="Eats" transform="translate(207 43)" fill="#f27c31" font-size="40" font-family="OpenSans-Bold, Open Sans" font-weight="700"><tspan x="-41.904" y="0">Eats</tspan></text>
    </g>
  </g>
</svg>
