<?xml version="1.0" encoding="UTF-8"?>
<svg width="24px" height="24px" viewBox="0 0 24 24" version="1.1" xmlns="http://www.w3.org/2000/svg" xmlns:xlink="http://www.w3.org/1999/xlink">
    <!-- Generator: Sketch 56.2 (81672) - https://sketch.com -->
    <title>Untitled</title>
    <desc>Created with Sketch.</desc>
    <g id="Page-1" stroke="none" stroke-width="1" fill="none" fill-rule="evenodd">
        <g id="search" fill="#AEAEAE" fill-rule="nonzero">
            <path d="M23.7061224,22.2955101 L17.9363265,16.5257143 C19.3665306,14.7820407 20.2285715,12.5485715 20.2285715,10.1142857 C20.2285715,9.0081844 20.0507816,7.94340719 19.7222354,6.94698732 C18.3922584,2.91341301 14.5918579,0 10.1142857,0 C4.52571428,0 0,4.53061223 0,10.1142857 C0,15.6979592 4.52571428,20.2285715 10.1142857,20.2285715 C12.5485715,20.2285715 14.7771428,19.3714285 16.5208163,17.9412245 L22.2906122,23.7061224 C22.6824489,24.0979592 23.3142857,24.0979592 23.7061224,23.7061224 C24.0979592,23.3191837 24.0979592,22.6824489 23.7061224,22.2955101 Z M10.1142857,18.2155101 C5.64244898,18.2155101 2.00816327,14.5812245 2.00816327,10.1142857 C2.00816327,5.64734693 5.64244898,2.00816327 10.1142857,2.00816327 C14.5812245,2.00816327 18.2204082,5.64734693 18.2204082,10.1142857 C18.2204082,14.5812245 14.5812245,18.2155101 10.1142857,18.2155101 Z" id="Shape"></path>
        </g>
    </g>
</svg>